<?xml version="1.0" encoding="utf-8"?>
<!-- Generator: Adobe Illustrator 16.0.4, SVG Export Plug-In . SVG Version: 6.00 Build 0)  -->
<!DOCTYPE svg PUBLIC "-//W3C//DTD SVG 1.1//EN" "http://www.w3.org/Graphics/SVG/1.1/DTD/svg11.dtd">
<svg version="1.1" id="Layer_1" xmlns="http://www.w3.org/2000/svg" xmlns:xlink="http://www.w3.org/1999/xlink" x="0px" y="0px"
	 width="44.184px" height="29px" viewBox="-10.6 3.633 44.184 29" enable-background="new -10.6 3.633 44.184 29"
	 xml:space="preserve">
<path fill="#FFFFFF" d="M-7.484,9.432h36.149c1.663,0,3.013-1.298,3.013-2.899s-1.35-2.9-3.013-2.9H-7.484
	c-1.664,0-3.013,1.299-3.013,2.9S-9.148,9.432-7.484,9.432z M28.665,15.233H-7.484c-1.664,0-3.013,1.3-3.013,2.899
	c0,1.602,1.349,2.902,3.013,2.902h36.149c1.663,0,3.013-1.301,3.013-2.902C31.678,16.533,30.328,15.233,28.665,15.233z
	 M28.665,26.834H-7.484c-1.664,0-3.013,1.301-3.013,2.896c0,1.603,1.349,2.903,3.013,2.903h36.149c1.663,0,3.013-1.301,3.013-2.903
	C31.678,28.135,30.328,26.834,28.665,26.834z"/>
</svg>
